<?xml version="1.0" encoding="UTF-8" standalone="no"?>
<!DOCTYPE svg PUBLIC "-//W3C//DTD SVG 1.1//EN"
 "http://www.w3.org/Graphics/SVG/1.1/DTD/svg11.dtd">
<!-- Generated by graphviz version 15.0.0 (20260523.1842)
 -->
<!-- Pages: 1 -->
<svg width="452pt" height="476pt"
 viewBox="0.00 0.00 452.00 476.00" xmlns="http://www.w3.org/2000/svg" xmlns:xlink="http://www.w3.org/1999/xlink">
<g id="graph0" class="graph" transform="scale(1 1) rotate(0) translate(4 472)">
<polygon fill="none" stroke="none" points="-4,4 -4,-472 448.42,-472 448.42,4 -4,4"/>
<!-- @api/hono -->
<g id="node1" class="node">
<title>@api/hono</title>
<ellipse fill="none" stroke="#f97316" cx="273.97" cy="-378" rx="96.91" ry="18"/>
<text xml:space="preserve" text-anchor="middle" x="273.97" y="-373.8" font-family="Times,serif" font-size="14.00" fill="#f97316">@api/hono (1.36 MB)</text>
</g>
<!-- @packages/auth -->
<g id="node2" class="node">
<title>@packages/auth</title>
<ellipse fill="none" stroke="#f97316" cx="148.97" cy="-306" rx="116.2" ry="18"/>
<text xml:space="preserve" text-anchor="middle" x="148.97" y="-301.8" font-family="Times,serif" font-size="14.00" fill="#f97316">@packages/auth (1.36 KB)</text>
</g>
<!-- @api/hono&#45;&gt;@packages/auth -->
<g id="edge1" class="edge">
<title>@api/hono&#45;&gt;@packages/auth</title>
<path fill="none" stroke="#f97316" d="M244.35,-360.41C227.74,-351.11 206.79,-339.38 188.76,-329.28"/>
<polygon fill="#f97316" stroke="#f97316" points="190.57,-326.28 180.14,-324.45 187.15,-332.39 190.57,-326.28"/>
</g>
<!-- @packages/db -->
<g id="node3" class="node">
<title>@packages/db</title>
<ellipse fill="none" stroke="#f97316" cx="168.97" cy="-234" rx="109.23" ry="18"/>
<text xml:space="preserve" text-anchor="middle" x="168.97" y="-229.8" font-family="Times,serif" font-size="14.00" fill="#f97316">@packages/db (5.46 KB)</text>
</g>
<!-- @api/hono&#45;&gt;@packages/db -->
<g id="edge2" class="edge">
<title>@api/hono&#45;&gt;@packages/db</title>
<path fill="none" stroke="#f97316" d="M278.96,-359.83C283.43,-340.78 287.42,-309.84 273.97,-288 264.89,-273.24 250.28,-262.43 234.81,-254.59"/>
<polygon fill="#f97316" stroke="#f97316" points="236.49,-251.51 225.95,-250.49 233.55,-257.87 236.49,-251.51"/>
</g>
<!-- @packages/env -->
<g id="node4" class="node">
<title>@packages/env</title>
<ellipse fill="none" stroke="#f97316" cx="299.97" cy="-162" rx="113.52" ry="18"/>
<text xml:space="preserve" text-anchor="middle" x="299.97" y="-157.8" font-family="Times,serif" font-size="14.00" fill="#f97316">@packages/env (4.51 KB)</text>
</g>
<!-- @api/hono&#45;&gt;@packages/env -->
<g id="edge3" class="edge">
<title>@api/hono&#45;&gt;@packages/env</title>
<path fill="none" stroke="#f97316" d="M280.75,-360.01C284.68,-349.71 289.53,-336.23 292.97,-324 306.13,-277.36 311.6,-264.32 307.97,-216 307.37,-207.99 306.27,-199.35 305.07,-191.43"/>
<polygon fill="#f97316" stroke="#f97316" points="308.53,-190.91 303.47,-181.61 301.62,-192.04 308.53,-190.91"/>
</g>
<!-- @packages/tsconfig -->
<g id="node5" class="node">
<title>@packages/tsconfig</title>
<ellipse fill="none" stroke="#f97316" cx="157.97" cy="-90" rx="89.11" ry="18"/>
<text xml:space="preserve" text-anchor="middle" x="157.97" y="-85.8" font-family="Times,serif" font-size="14.00" fill="#f97316">@packages/tsconfig</text>
</g>
<!-- @api/hono&#45;&gt;@packages/tsconfig -->
<g id="edge4" class="edge">
<title>@api/hono&#45;&gt;@packages/tsconfig</title>
<path fill="none" stroke="#f97316" d="M186.46,-369.99C122.81,-362.86 44.36,-349.16 23.97,-324 -27.74,-260.17 14,-207.62 65.97,-144 77.07,-130.42 92.63,-119.61 107.8,-111.39"/>
<polygon fill="#f97316" stroke="#f97316" points="109,-114.71 116.31,-107.05 105.81,-108.47 109,-114.71"/>
</g>
<!-- @packages/auth&#45;&gt;@packages/db -->
<g id="edge5" class="edge">
<title>@packages/auth&#45;&gt;@packages/db</title>
<path fill="none" stroke="#f97316" d="M153.92,-287.7C156.05,-280.24 158.6,-271.32 160.98,-262.97"/>
<polygon fill="#f97316" stroke="#f97316" points="164.29,-264.14 163.67,-253.56 157.56,-262.21 164.29,-264.14"/>
</g>
<!-- @packages/auth&#45;&gt;@packages/env -->
<g id="edge6" class="edge">
<title>@packages/auth&#45;&gt;@packages/env</title>
<path fill="none" stroke="#f97316" d="M223.48,-291.92C247.12,-284.14 271.19,-271.74 286.97,-252 300.4,-235.21 303.15,-210.75 302.82,-191.72"/>
<polygon fill="#f97316" stroke="#f97316" points="306.32,-191.73 302.33,-181.92 299.33,-192.08 306.32,-191.73"/>
</g>
<!-- @packages/auth&#45;&gt;@packages/tsconfig -->
<g id="edge7" class="edge">
<title>@packages/auth&#45;&gt;@packages/tsconfig</title>
<path fill="none" stroke="#f97316" d="M97.51,-289.53C79.55,-281.38 61.32,-269.36 50.97,-252 42.78,-238.26 45.43,-231.01 50.97,-216 66.21,-174.77 101.78,-137.95 127.74,-115.13"/>
<polygon fill="#f97316" stroke="#f97316" points="130,-117.8 135.33,-108.64 125.45,-112.48 130,-117.8"/>
</g>
<!-- @packages/db&#45;&gt;@packages/env -->
<g id="edge8" class="edge">
<title>@packages/db&#45;&gt;@packages/env</title>
<path fill="none" stroke="#f97316" d="M200.02,-216.41C217.59,-207.02 239.79,-195.16 258.8,-185"/>
<polygon fill="#f97316" stroke="#f97316" points="260.19,-188.23 267.36,-180.43 256.89,-182.05 260.19,-188.23"/>
</g>
<!-- @packages/db&#45;&gt;@packages/tsconfig -->
<g id="edge9" class="edge">
<title>@packages/db&#45;&gt;@packages/tsconfig</title>
<path fill="none" stroke="#f97316" d="M167.63,-215.59C165.77,-191.61 162.4,-148.14 160.18,-119.42"/>
<polygon fill="#f97316" stroke="#f97316" points="163.68,-119.32 159.42,-109.62 156.7,-119.86 163.68,-119.32"/>
</g>
<!-- @packages/env&#45;&gt;@packages/tsconfig -->
<g id="edge10" class="edge">
<title>@packages/env&#45;&gt;@packages/tsconfig</title>
<path fill="none" stroke="#f97316" d="M266.32,-144.41C246.68,-134.73 221.7,-122.41 200.68,-112.05"/>
<polygon fill="#f97316" stroke="#f97316" points="202.28,-108.94 191.77,-107.66 199.19,-115.22 202.28,-108.94"/>
</g>
<!-- zerostarter -->
<g id="node6" class="node">
<title>zerostarter</title>
<ellipse fill="none" stroke="#f97316" cx="157.97" cy="-18" rx="51.78" ry="18"/>
<text xml:space="preserve" text-anchor="middle" x="157.97" y="-13.8" font-family="Times,serif" font-size="14.00" fill="#f97316">zerostarter</text>
</g>
<!-- @packages/tsconfig&#45;&gt;zerostarter -->
<g id="edge11" class="edge">
<title>@packages/tsconfig&#45;&gt;zerostarter</title>
<path fill="none" stroke="#f97316" d="M157.97,-71.7C157.97,-64.41 157.97,-55.73 157.97,-47.54"/>
<polygon fill="#f97316" stroke="#f97316" points="161.47,-47.62 157.97,-37.62 154.47,-47.62 161.47,-47.62"/>
</g>
<!-- @web/next -->
<g id="node7" class="node">
<title>@web/next</title>
<ellipse fill="none" stroke="#f97316" cx="335.97" cy="-450" rx="103.34" ry="18"/>
<text xml:space="preserve" text-anchor="middle" x="335.97" y="-445.8" font-family="Times,serif" font-size="14.00" fill="#f97316">@web/next (90.33 MB)</text>
</g>
<!-- @web/next&#45;&gt;@api/hono -->
<g id="edge12" class="edge">
<title>@web/next&#45;&gt;@api/hono</title>
<path fill="none" stroke="#f97316" d="M320.97,-432.05C313.58,-423.71 304.52,-413.49 296.34,-404.25"/>
<polygon fill="#f97316" stroke="#f97316" points="299.1,-402.09 289.85,-396.92 293.86,-406.73 299.1,-402.09"/>
</g>
<!-- @web/next&#45;&gt;@packages/auth -->
<g id="edge13" class="edge">
<title>@web/next&#45;&gt;@packages/auth</title>
<path fill="none" stroke="#f97316" d="M249.95,-439.71C220.19,-432.31 189.06,-419.2 167.97,-396 153.26,-379.81 148.9,-355.1 148.01,-335.82"/>
<polygon fill="#f97316" stroke="#f97316" points="151.51,-335.82 147.86,-325.87 144.51,-335.92 151.51,-335.82"/>
</g>
<!-- @web/next&#45;&gt;@packages/env -->
<g id="edge14" class="edge">
<title>@web/next&#45;&gt;@packages/env</title>
<path fill="none" stroke="#f97316" d="M355.45,-431.92C364.8,-422.4 375.02,-409.72 379.97,-396 385.41,-380.95 382.97,-375.72 379.97,-360 367.83,-296.31 334.68,-227.27 315.08,-190.21"/>
<polygon fill="#f97316" stroke="#f97316" points="318.23,-188.69 310.42,-181.54 312.07,-192 318.23,-188.69"/>
</g>
<!-- @web/next&#45;&gt;@packages/tsconfig -->
<g id="edge15" class="edge">
<title>@web/next&#45;&gt;@packages/tsconfig</title>
<path fill="none" stroke="#f97316" d="M360.29,-432.13C391.59,-408.22 441.97,-361.3 441.97,-307 441.97,-307 441.97,-307 441.97,-233 441.97,-192.55 451.76,-172.41 422.97,-144 398.79,-120.12 317.11,-106.3 250.76,-98.79"/>
<polygon fill="#f97316" stroke="#f97316" points="251.24,-95.33 240.92,-97.72 250.48,-102.28 251.24,-95.33"/>
</g>
</g>
</svg>
