<svg xmlns="http://www.w3.org/2000/svg" width="452pt" height="476pt" viewBox="0 0 452 476"><g id="graph0" class="graph" transform="translate(4 472)"><path fill="none" d="M-4 4v-476h452.42V4z"/><g id="node1" class="node"><title>@api/hono</title><ellipse cx="273.97" cy="-378" fill="none" stroke="#3b82f6" rx="96.91" ry="18"/><text xml:space="preserve" x="273.97" y="-373.8" fill="#3b82f6" font-family="Times,serif" font-size="14" text-anchor="middle">@api/hono (1.36 MB)</text></g><g id="node2" class="node"><title>@packages/auth</title><ellipse cx="148.97" cy="-306" fill="none" stroke="#3b82f6" rx="116.2" ry="18"/><text xml:space="preserve" x="148.97" y="-301.8" fill="#3b82f6" font-family="Times,serif" font-size="14" text-anchor="middle">@packages/auth (1.36 KB)</text></g><g id="edge1" class="edge"><title>@api/hono-&gt;@packages/auth</title><path fill="none" stroke="#3b82f6" d="M244.35-360.41c-16.61 9.3-37.56 21.03-55.59 31.13"/><path fill="#3b82f6" stroke="#3b82f6" d="m190.57-326.28-10.43 1.83 7.01-7.94z"/></g><g id="node3" class="node"><title>@packages/config</title><ellipse cx="157.97" cy="-90" fill="none" stroke="#3b82f6" rx="82.67" ry="18"/><text xml:space="preserve" x="157.97" y="-85.8" fill="#3b82f6" font-family="Times,serif" font-size="14" text-anchor="middle">@packages/config</text></g><g id="edge2" class="edge"><title>@api/hono-&gt;@packages/config</title><path fill="none" stroke="#3b82f6" d="M186.46-369.99c-63.65 7.13-142.1 20.83-162.49 45.99-51.71 63.83-9.97 116.38 42 180 11.2 13.7 26.93 24.58 42.22 32.82"/><path fill="#3b82f6" stroke="#3b82f6" d="m109.44-114.47 7.34 7.65-10.5-1.4z"/></g><g id="node4" class="node"><title>@packages/db</title><ellipse cx="168.97" cy="-234" fill="none" stroke="#3b82f6" rx="109.23" ry="18"/><text xml:space="preserve" x="168.97" y="-229.8" fill="#3b82f6" font-family="Times,serif" font-size="14" text-anchor="middle">@packages/db (5.46 KB)</text></g><g id="edge3" class="edge"><title>@api/hono-&gt;@packages/db</title><path fill="none" stroke="#3b82f6" d="M278.96-359.83c4.47 19.05 8.46 49.99-4.99 71.83-9.08 14.76-23.69 25.57-39.16 33.41"/><path fill="#3b82f6" stroke="#3b82f6" d="m236.49-251.51-10.54 1.02 7.6-7.38z"/></g><g id="node5" class="node"><title>@packages/env</title><ellipse cx="299.97" cy="-162" fill="none" stroke="#3b82f6" rx="113.52" ry="18"/><text xml:space="preserve" x="299.97" y="-157.8" fill="#3b82f6" font-family="Times,serif" font-size="14" text-anchor="middle">@packages/env (4.51 KB)</text></g><g id="edge4" class="edge"><title>@api/hono-&gt;@packages/env</title><path fill="none" stroke="#3b82f6" d="M280.75-360.01c3.93 10.3 8.78 23.78 12.22 36.01 13.16 46.64 18.63 59.68 15 108-.6 8.01-1.7 16.65-2.9 24.57"/><path fill="#3b82f6" stroke="#3b82f6" d="m308.53-190.91-5.06 9.3-1.85-10.43z"/></g><g id="edge5" class="edge"><title>@packages/auth-&gt;@packages/config</title><path fill="none" stroke="#3b82f6" d="M97.51-289.53c-17.96 8.15-36.19 20.17-46.54 37.53-8.19 13.74-5.54 20.99 0 36 15.24 41.23 50.81 78.05 76.77 100.87"/><path fill="#3b82f6" stroke="#3b82f6" d="m130-117.8 5.33 9.16-9.88-3.84z"/></g><g id="edge6" class="edge"><title>@packages/auth-&gt;@packages/db</title><path fill="none" stroke="#3b82f6" d="M153.92-287.7c2.13 7.46 4.68 16.38 7.06 24.73"/><path fill="#3b82f6" stroke="#3b82f6" d="m164.29-264.14-.62 10.58-6.11-8.65z"/></g><g id="edge7" class="edge"><title>@packages/auth-&gt;@packages/env</title><path fill="none" stroke="#3b82f6" d="M223.48-291.92c23.64 7.78 47.71 20.18 63.49 39.92 13.43 16.79 16.18 41.25 15.85 60.28"/><path fill="#3b82f6" stroke="#3b82f6" d="m306.32-191.73-3.99 9.81-3-10.16z"/></g><g id="node6" class="node"><title>zerostarter</title><ellipse cx="157.97" cy="-18" fill="none" stroke="#3b82f6" rx="51.78" ry="18"/><text xml:space="preserve" x="157.97" y="-13.8" fill="#3b82f6" font-family="Times,serif" font-size="14" text-anchor="middle">zerostarter</text></g><g id="edge8" class="edge"><title>@packages/config-&gt;zerostarter</title><path fill="none" stroke="#3b82f6" d="M157.97-71.7v24.16"/><path fill="#3b82f6" stroke="#3b82f6" d="m161.47-47.62-3.5 10-3.5-10z"/></g><g id="edge9" class="edge"><title>@packages/db-&gt;@packages/config</title><path fill="none" stroke="#3b82f6" d="M167.63-215.59c-1.86 23.98-5.23 67.45-7.45 96.17"/><path fill="#3b82f6" stroke="#3b82f6" d="m163.68-119.32-4.26 9.7-2.72-10.24z"/></g><g id="edge10" class="edge"><title>@packages/db-&gt;@packages/env</title><path fill="none" stroke="#3b82f6" d="M200.02-216.41c17.57 9.39 39.77 21.25 58.78 31.41"/><path fill="#3b82f6" stroke="#3b82f6" d="m260.19-188.23 7.17 7.8-10.47-1.62z"/></g><g id="edge11" class="edge"><title>@packages/env-&gt;@packages/config</title><path fill="none" stroke="#3b82f6" d="M266.32-144.41c-19.64 9.68-44.62 22-65.64 32.36"/><path fill="#3b82f6" stroke="#3b82f6" d="m202.28-108.94-10.51 1.28 7.42-7.56z"/></g><g id="node7" class="node"><title>@web/next</title><ellipse cx="335.97" cy="-450" fill="none" stroke="#3b82f6" rx="103.34" ry="18"/><text xml:space="preserve" x="335.97" y="-445.8" fill="#3b82f6" font-family="Times,serif" font-size="14" text-anchor="middle">@web/next (93.86 MB)</text></g><g id="edge12" class="edge"><title>@web/next-&gt;@api/hono</title><path fill="none" stroke="#3b82f6" d="M320.97-432.05c-7.39 8.34-16.45 18.56-24.63 27.8"/><path fill="#3b82f6" stroke="#3b82f6" d="m299.1-402.09-9.25 5.17 4.01-9.81z"/></g><g id="edge13" class="edge"><title>@web/next-&gt;@packages/auth</title><path fill="none" stroke="#3b82f6" d="M249.95-439.71c-29.76 7.4-60.89 20.51-81.98 43.71-14.71 16.19-19.07 40.9-19.96 60.18"/><path fill="#3b82f6" stroke="#3b82f6" d="m151.51-335.82-3.65 9.95-3.35-10.05z"/></g><g id="edge14" class="edge"><title>@web/next-&gt;@packages/config</title><path fill="none" stroke="#3b82f6" d="M360.29-432.13c31.3 23.91 81.68 70.83 81.68 125.13v74c0 40.45 9.79 60.59-19 89-24.78 24.47-109.97 38.38-177.15 45.76"/><path fill="#3b82f6" stroke="#3b82f6" d="m246.6-94.81-10.31-2.42 9.57-4.54z"/></g><g id="edge15" class="edge"><title>@web/next-&gt;@packages/env</title><path fill="none" stroke="#3b82f6" d="M355.45-431.92c9.35 9.52 19.57 22.2 24.52 35.92 5.44 15.05 3 20.28 0 36-12.14 63.69-45.29 132.73-64.89 169.79"/><path fill="#3b82f6" stroke="#3b82f6" d="m318.23-188.69-7.81 7.15 1.65-10.46z"/></g></g></svg>