<svg xmlns="http://www.w3.org/2000/svg" width="569pt" height="476pt" viewBox="0 0 569 476"><g class="graph"><path fill="none" d="M0 476V0h568.95v476z"/><g class="node" transform="translate(4 472)"><title>@api/hono</title><ellipse cx="98.95" cy="-378" fill="none" stroke="#1f6feb" rx="98.95" ry="18"/><text xml:space="preserve" x="98.95" y="-372.95" fill="#1f6feb" font-family="Times,serif" font-size="14" text-anchor="middle">@api/hono</text></g><g class="node" transform="translate(4 472)"><title>@packages/auth</title><ellipse cx="351.95" cy="-306" fill="none" stroke="#1f6feb" rx="118.91" ry="18"/><text xml:space="preserve" x="351.95" y="-300.95" fill="#1f6feb" font-family="Times,serif" font-size="14" text-anchor="middle">@packages/auth</text></g><g class="edge" transform="translate(4 472)"><title>@api/hono-&gt;@packages/auth</title><path fill="none" stroke="#1f6feb" d="M151.68-362.41c38.95 10.78 92.24 25.52 134.06 37.09"/><path fill="#1f6feb" stroke="#1f6feb" d="m286.5-328.74 8.7 6.04-10.57.71z"/></g><g class="node" transform="translate(4 472)"><title>@packages/env</title><ellipse cx="242.95" cy="-162" fill="none" stroke="#1f6feb" rx="116.35" ry="18"/><text xml:space="preserve" x="242.95" y="-156.95" fill="#1f6feb" font-family="Times,serif" font-size="14" text-anchor="middle">@packages/env</text></g><g class="edge" transform="translate(4 472)"><title>@api/hono-&gt;@packages/env</title><path fill="none" stroke="#1f6feb" d="M107.01-359.66c14.58 30.5 47.24 95.13 83.94 143.66 7.35 9.72 16.36 19.48 24.8 27.93"/><path fill="#1f6feb" stroke="#1f6feb" d="m218.12-190.64 4.72 9.48-9.61-4.47z"/></g><g class="node" transform="translate(4 472)"><title>@packages/tsconfig</title><ellipse cx="386.95" cy="-90" fill="none" stroke="#1f6feb" rx="132.73" ry="18"/><text xml:space="preserve" x="386.95" y="-84.95" fill="#1f6feb" font-family="Times,serif" font-size="14" text-anchor="middle">@packages/tsconfig</text></g><g class="edge" transform="translate(4 472)"><title>@api/hono-&gt;@packages/tsconfig</title><path fill="none" stroke="#1f6feb" d="M94.16-359.71C83.48-317.05 62.81-205.76 117.95-144c19.73 22.1 83.9 35.24 144.61 42.91"/><path fill="#1f6feb" stroke="#1f6feb" d="m262.83-104.58 9.51 4.68-10.35 2.27z"/></g><g class="edge" transform="translate(4 472)"><title>@packages/auth-&gt;@packages/env</title><path fill="none" stroke="#1f6feb" d="M309.36-288.97c-17.16 8.51-35.64 20.64-47.41 36.97-12.58 17.45-17.15 41.52-18.68 60.23"/><path fill="#1f6feb" stroke="#1f6feb" d="m246.77-191.68-4.03 9.79-2.96-10.17z"/></g><g class="edge" transform="translate(4 472)"><title>@packages/auth-&gt;@packages/tsconfig</title><path fill="none" stroke="#1f6feb" d="M440.04-293.67c24.68 7.69 48.86 20.48 63.91 41.67 35.12 49.44-32.91 106.77-79.16 137.93"/><path fill="#1f6feb" stroke="#1f6feb" d="m426.84-111.23-10.28 2.56 6.43-8.41z"/></g><g class="node" transform="translate(4 472)"><title>@packages/db</title><ellipse cx="382.95" cy="-234" fill="none" stroke="#1f6feb" rx="112.26" ry="18"/><text xml:space="preserve" x="382.95" y="-228.95" fill="#1f6feb" font-family="Times,serif" font-size="14" text-anchor="middle">@packages/db</text></g><g class="edge" transform="translate(4 472)"><title>@packages/auth-&gt;@packages/db</title><path fill="none" stroke="#1f6feb" d="M359.61-287.7c3.38 7.63 7.43 16.78 11.21 25.3"/><path fill="#1f6feb" stroke="#1f6feb" d="m373.91-264.05.85 10.56-7.25-7.72z"/></g><g class="edge" transform="translate(4 472)"><title>@packages/env-&gt;@packages/tsconfig</title><path fill="none" stroke="#1f6feb" d="M277.08-144.41c19.49 9.48 44.16 21.47 65.19 31.69"/><path fill="#1f6feb" stroke="#1f6feb" d="m343.74-115.89 7.47 7.52-10.53-1.23z"/></g><g class="node" transform="translate(4 472)"><title>ZeroStarter</title><ellipse cx="386.95" cy="-18" fill="none" stroke="#1f6feb" rx="87.18" ry="18"/><text xml:space="preserve" x="386.95" y="-12.95" fill="#1f6feb" font-family="Times,serif" font-size="14" text-anchor="middle">ZeroStarter</text></g><g class="edge" transform="translate(4 472)"><title>@packages/tsconfig-&gt;ZeroStarter</title><path fill="none" stroke="#1f6feb" d="M386.95-71.7v24.16"/><path fill="#1f6feb" stroke="#1f6feb" d="m390.45-47.62-3.5 10-3.5-10z"/></g><g class="edge" transform="translate(4 472)"><title>@packages/db-&gt;@packages/env</title><path fill="none" stroke="#1f6feb" d="M349.77-216.41c-18.87 9.43-42.72 21.36-63.1 31.55"/><path fill="#1f6feb" stroke="#1f6feb" d="m288.24-181.73-10.51 1.34 7.38-7.6z"/></g><g class="edge" transform="translate(4 472)"><title>@packages/db-&gt;@packages/tsconfig</title><path fill="none" stroke="#1f6feb" d="M383.44-215.59c.68 23.98 1.9 67.45 2.71 96.17"/><path fill="#1f6feb" stroke="#1f6feb" d="m389.64-119.72-3.22 10.1-3.78-9.9z"/></g><g class="node" transform="translate(4 472)"><title>@web/next</title><ellipse cx="266.95" cy="-450" fill="none" stroke="#1f6feb" rx="100.48" ry="18"/><text xml:space="preserve" x="266.95" y="-444.95" fill="#1f6feb" font-family="Times,serif" font-size="14" text-anchor="middle">@web/next</text></g><g class="edge" transform="translate(4 472)"><title>@web/next-&gt;@api/hono</title><path fill="none" stroke="#1f6feb" d="M228.41-432.94c-23.91 9.96-54.84 22.85-80.47 33.53"/><path fill="#1f6feb" stroke="#1f6feb" d="m149.29-396.18-10.58.61 7.88-7.07z"/></g><g class="edge" transform="translate(4 472)"><title>@web/next-&gt;@packages/auth</title><path fill="none" stroke="#1f6feb" d="M277.2-431.87c14.55 24.31 41.34 69.05 58.58 97.86"/><path fill="#1f6feb" stroke="#1f6feb" d="m338.75-335.87 2.13 10.38-8.14-6.78z"/></g><g class="edge" transform="translate(4 472)"><title>@web/next-&gt;@packages/env</title><path fill="none" stroke="#1f6feb" d="M258.93-431.68c-10.49 23.7-28.32 67.84-34.98 107.68-7.73 46.23 2.64 100.45 10.83 132.7"/><path fill="#1f6feb" stroke="#1f6feb" d="m238.08-192.5-.81 10.57-5.95-8.77z"/></g><g class="edge" transform="translate(4 472)"><title>@web/next-&gt;@packages/tsconfig</title><path fill="none" stroke="#1f6feb" d="M358.76-442.5c86.27 11.7 202.19 44.38 202.19 135.5v74c0 60.61-64.15 99.97-114.55 121.54"/><path fill="#1f6feb" stroke="#1f6feb" d="m447.86-108.28-10.58.58 7.91-7.05z"/></g></g></svg>